<svg width="10" height="6" viewBox="0 0 10 6" fill="none" xmlns="http://www.w3.org/2000/svg">
<path d="M0.129272 0.158478L2.05798 1.58719L2.06287 1.59012L3.9906 3.37625L3.99353 3.3782C4.072 3.46072 4.1765 3.57586 4.28845 3.66922C4.3443 3.71579 4.40076 3.75578 4.45447 3.78348C4.50847 3.8113 4.55678 3.82516 4.59802 3.82352C4.64031 3.82179 4.69036 3.80537 4.74548 3.77664C4.80011 3.74815 4.85711 3.70859 4.91345 3.66336C5.02624 3.57282 5.13233 3.46239 5.20544 3.38016L5.2074 3.3782C5.20794 3.37761 5.20832 3.37638 5.20935 3.37527C5.21162 3.37283 5.21566 3.36927 5.22009 3.36453C5.22887 3.35513 5.24156 3.34117 5.25818 3.32352C5.29192 3.28769 5.3416 3.23579 5.40271 3.17215C5.52511 3.0447 5.69642 2.8685 5.89099 2.67703C6.27913 2.2951 6.76386 1.84642 7.14294 1.58621C7.37943 1.42366 7.86052 1.06676 8.28357 0.752228C8.4948 0.595179 8.69157 0.448287 8.83533 0.342072C8.90699 0.289126 8.96626 0.246509 9.0072 0.217072C9.02736 0.202577 9.04368 0.19059 9.05505 0.182892C9.06058 0.179156 9.06649 0.175589 9.07068 0.173126C9.07236 0.172139 9.07557 0.169876 9.07947 0.168243C9.08041 0.167857 9.08798 0.164881 9.09705 0.164337C9.10151 0.164095 9.1144 0.163825 9.12732 0.17215C9.14419 0.183097 9.14967 0.200806 9.14978 0.214142C9.14917 0.221806 9.14624 0.23229 9.1449 0.235626C9.14426 0.236919 9.14359 0.239375 9.14294 0.240509C9.14202 0.242024 9.14055 0.243659 9.14001 0.244415C9.13889 0.245998 9.13725 0.247827 9.13611 0.249298C9.13371 0.252381 9.13041 0.256998 9.12634 0.261993C9.11817 0.27203 9.1065 0.286606 9.09119 0.304962C9.06001 0.342328 9.01359 0.396443 8.95544 0.465118C8.83907 0.602554 8.67264 0.798458 8.47205 1.0325C8.0709 1.50053 7.5336 2.1233 6.98767 2.74539C6.4417 3.36753 5.8864 3.98973 5.45154 4.45633C5.23446 4.68924 5.04679 4.88402 4.90466 5.02078C4.83376 5.089 4.77335 5.14409 4.72595 5.18192C4.70233 5.20076 4.68011 5.21577 4.6615 5.22684C4.65221 5.23236 4.64253 5.2378 4.63318 5.24149C4.62438 5.24492 4.6128 5.24832 4.59998 5.24832C4.57667 5.24832 4.55313 5.23793 4.53455 5.22781C4.51428 5.21675 4.49108 5.20171 4.46619 5.18289C4.41583 5.1448 4.35266 5.08938 4.27966 5.02078C4.13356 4.88347 3.94341 4.68795 3.72498 4.45438C3.28744 3.9865 2.73424 3.3626 2.19177 2.73953C1.64925 2.1164 1.11691 1.49299 0.720093 1.02567C0.521676 0.791996 0.356493 0.597531 0.241577 0.461212C0.184241 0.393197 0.139457 0.339525 0.108765 0.303009C0.0934161 0.284749 0.0815311 0.270455 0.0736084 0.261017C0.0696831 0.256341 0.0668317 0.252673 0.0648193 0.250275C0.0638638 0.249136 0.0633725 0.247949 0.0628662 0.247345H0.0618896L0.0501709 0.232697L0.0501709 0.0989075L0.129272 0.158478Z" fill="#BCA489" stroke="#BFA88F" stroke-width="0.1"/>
</svg>
