<svg width="26" height="26" viewBox="0 0 26 26" fill="none" xmlns="http://www.w3.org/2000/svg">
<path d="M19.9542 7C19.1312 6.99971 18.3168 7.16651 17.5612 7.49013C16.8056 7.81374 16.1248 8.28733 15.5607 8.88172C14.8231 8.3222 13.9204 8.01903 12.9918 8.01903C12.0632 8.01903 11.1604 8.3222 10.4229 8.88172C9.36124 7.77295 7.9124 7.10863 6.37301 7.0248C4.83362 6.94096 3.32015 7.44395 2.1425 8.43078C0.964854 9.4176 0.212134 10.8136 0.0384704 12.3329C-0.135194 13.8522 0.283337 15.3799 1.20836 16.6031C2.13339 17.8264 3.49492 18.6526 5.01417 18.9127C6.53342 19.1727 8.09543 18.8469 9.38037 18.002C10.6653 17.1571 11.576 15.8569 11.9258 14.3677C12.2757 12.8786 12.0384 11.3131 11.2624 9.99189C11.7581 9.61222 12.3668 9.40628 12.9932 9.40628C13.6195 9.40628 14.2282 9.61222 14.724 9.99189C14.0573 11.1343 13.7894 12.4631 13.9619 13.772C14.1345 15.0808 14.7377 16.2966 15.6781 17.2307C16.6186 18.1648 17.8435 18.7649 19.163 18.938C20.4824 19.1111 21.8226 18.8474 22.9755 18.1879C24.1284 17.5284 25.0296 16.5099 25.5393 15.2905C26.0489 14.0711 26.1385 12.719 25.7942 11.4439C25.4499 10.1688 24.6908 9.04215 23.6349 8.23863C22.5789 7.43512 21.2851 6.99972 19.9542 7ZM6.02938 17.6076C5.11007 17.6076 4.2114 17.3372 3.44702 16.8307C2.68264 16.3241 2.08688 15.6042 1.73507 14.7618C1.38326 13.9194 1.29122 12.9925 1.47056 12.0983C1.64991 11.2041 2.09261 10.3826 2.74266 9.73792C3.39271 9.09321 4.22093 8.65416 5.12258 8.47628C6.02423 8.29841 6.95881 8.3897 7.80815 8.73861C8.65748 9.08753 9.38342 9.6784 9.89416 10.4365C10.4049 11.1946 10.6775 12.0859 10.6775 12.9977C10.676 14.2198 10.1858 15.3915 9.31447 16.2558C8.4431 17.12 7.26169 17.6061 6.02938 17.6076ZM19.9542 17.6076C19.0349 17.6076 18.1362 17.3372 17.3718 16.8307C16.6074 16.3241 16.0117 15.6042 15.6599 14.7618C15.3081 13.9194 15.216 12.9925 15.3954 12.0983C15.5747 11.2041 16.0174 10.3826 16.6675 9.73792C17.3175 9.09321 18.1457 8.65416 19.0474 8.47628C19.949 8.29841 20.8836 8.3897 21.7329 8.73861C22.5823 9.08753 23.3082 9.6784 23.819 10.4365C24.3297 11.1946 24.6023 12.0859 24.6023 12.9977C24.6008 14.2198 24.1106 15.3915 23.2393 16.2558C22.3679 17.12 21.1865 17.6061 19.9542 17.6076Z" fill="#887B61"/>
</svg>
