<svg width="26" height="26" viewBox="0 0 26 26" fill="none" xmlns="http://www.w3.org/2000/svg">
<path d="M15.6709 2.5C21.1741 2.50024 25.4999 6.98298 25.5 12.5303V12.5322C25.5089 15.1484 24.4836 17.6612 22.6504 19.5186C20.8172 21.3757 18.3255 22.4255 15.7227 22.4395C14.7158 22.4393 14.0214 22.3654 13.3887 22.1621C12.7558 21.9587 12.1491 21.6148 11.3359 21.0244L10.9434 20.7402L10.6465 21.123C10.2107 21.6857 9.23234 22.2428 8.33203 22.4336C7.88363 22.5286 7.53077 22.5156 7.31055 22.4307C7.20843 22.3912 7.14366 22.3401 7.10156 22.2842C7.06044 22.2294 7.02109 22.1428 7.00879 21.999C7.00374 20.5767 6.68789 19.3754 6.35059 18.1299H6.35156C5.94675 16.5839 5.5 14.9089 5.5 12.4746C5.50025 6.79094 10.1425 2.5 15.6709 2.5ZM15.8369 6.66797C12.7235 6.50661 10.3363 8.69068 9.81641 11.9736V11.9746C9.60533 13.3133 9.6879 14.7815 9.89941 15.9365C10.0052 16.5138 10.1461 17.0321 10.3096 17.4277C10.3908 17.6242 10.4849 17.8079 10.5938 17.957C10.6799 18.075 10.816 18.228 11.0117 18.3076L11.0996 18.3369L11.1104 18.3398C11.3571 18.3995 11.5921 18.3097 11.7236 18.25C11.8814 18.1784 12.0441 18.0756 12.1953 17.9678C12.3882 17.8303 12.5855 17.6654 12.7666 17.502C13.5116 17.9435 14.3478 18.2115 15.2139 18.2813L15.2217 18.2822H15.2305C16.7655 18.3563 18.2682 17.8231 19.415 16.7969C20.49 15.8349 21.1719 14.5119 21.3379 13.083L21.3643 12.7959L21.3652 12.7813C21.4251 11.24 20.8797 9.73622 19.8467 8.59375C18.92 7.56897 17.6668 6.90972 16.3105 6.7207V6.69238L15.8369 6.66797Z" fill="#887B61" stroke="white"/>
</svg>
